# xmcd
#
# Track frame offsets:
#	150
#	14118
#	20910
#	34663
#	53286
#	65246
#	79539
#	94661
#	109261
#	130547
#	143472
#	154835
#	171336
#	182986
#
# Disc length: 2603 seconds
#
# Revision: 0
# Processed by: cddbd v1.5.2PL0 Copyright (c) Steve Scherf et al.
# Submitted via: audiograbber 1.83.01
#
DISCID=b80a290e
DTITLE=Trucker and Country für unterwegs - CD 1
DYEAR=1900
DGENRE=Oldies
TTITLE0=John Denver - Take Me Home Country Roads (Live)
TTITLE1=Waylon Jennings - It's So Easy
TTITLE2=Anne Murray - Last Thing On My Mind
TTITLE3=Kris Kristofferson - A Moment Of Forever
TTITLE4=Tammy Wynette - Stand By Your Man
TTITLE5=Freddie Fender - Wasted Days And Wasted Nights
TTITLE6=Billie Jo Spears - Blanket On The Ground
TTITLE7=Lee Hazlewood - These Boots Are Made For Walking
TTITLE8=Olivia Newton-John - Banks Of Ohio
TTITLE9=Charlie Rich - The Most Beautiful Girl
TTITLE10=Dave Dudley - Six Days On The Road
TTITLE11=Gordon Lightfoot - Diddley Dee, Diddley Dee
TTITLE12=Donna Fargo - The Happiest Girl In The USA
TTITLE13=Bobby Bare - Music City USA
EXTD=
EXTT0=
EXTT1=
EXTT2=
EXTT3=
EXTT4=
EXTT5=
EXTT6=
EXTT7=
EXTT8=
EXTT9=
EXTT10=
EXTT11=
EXTT12=
EXTT13=
PLAYORDER=
